<?xml version="1.0" standalone="no"?>
<!DOCTYPE svg PUBLIC "-//W3C//DTD SVG 1.1//EN" "http://www.w3.org/Graphics/SVG/1.1/DTD/svg11.dtd" >
<svg xmlns="http://www.w3.org/2000/svg">
<metadata></metadata>
<defs>
<font id="mm_text_pro_webttbold" horiz-adv-x="1079" >
<font-face units-per-em="2048" ascent="1638" descent="-410" />
<missing-glyph horiz-adv-x="331" />
<glyph horiz-adv-x="0" />
<glyph unicode="&#xd;" horiz-adv-x="0" />
<glyph unicode=" "  horiz-adv-x="331" />
<glyph unicode="&#x09;" horiz-adv-x="331" />
<glyph unicode="&#xa0;" horiz-adv-x="331" />
<glyph unicode="!" horiz-adv-x="577" d="M106 1352l377 39l-53 -959h-291zM117 0v311h334v-311h-334z" />
<glyph unicode="&#x22;" horiz-adv-x="796" d="M84 791v561h285l-72 -561h-213zM461 791v561h284l-71 -561h-213z" />
<glyph unicode="#" horiz-adv-x="1329" d="M35 303l43 236h172l55 292h-182l43 238h182l53 283h269l-54 -283h224l53 283h268l-53 -283h186l-45 -238h-184l-53 -292h190l-43 -236h-190l-56 -303h-270l55 303h-221l-55 -303h-270l55 303h-172zM520 539h221l56 292h-224z" />
<glyph unicode="$" horiz-adv-x="821" d="M59 18l2 336q47 -16 135.5 -35.5t194.5 -19.5h15q2 10 3 19.5t1 19.5q0 39 -21.5 76t-56.5 82l-160 206q-43 55 -74.5 129t-31.5 166q0 129 60 226.5t193 134.5v237h187v-219q117 -4 183.5 -18.5t68.5 -16.5l-19 -311q-47 14 -99 21.5t-114 7.5q-88 0 -88 -68 q0 -27 14.5 -52.5t39.5 -59.5l180 -252q47 -66 71.5 -131.5t24.5 -141.5q0 -141 -66.5 -237.5t-212.5 -126.5v-236h-190v223q-86 4 -147.5 17.5t-92.5 23.5z" />
<glyph unicode="%" horiz-adv-x="1419" d="M37 1026q0 188 72.5 269t228.5 81q82 0 133 -20.5t81 -63.5t40 -109.5t10 -158.5q0 -193 -71.5 -271.5t-227.5 -78.5q-82 0 -134 19.5t-81 62.5t-40 109.5t-11 160.5zM258 0l670 1352h231l-670 -1352h-231zM260 1024q0 -76 3 -115t13 -73q10 -4 31 -5q18 0 32.5 5.5 t25 26t15.5 58t5 103.5q0 74 -4 114t-14 74q-16 6 -33 7q-18 0 -32.5 -6.5t-24 -26t-13.5 -58t-4 -104.5zM821 328q0 188 72 269t227 81q82 0 133.5 -20.5t81 -63.5t39.5 -109.5t10 -158.5q0 -193 -71.5 -272t-227.5 -79q-82 0 -133 19.5t-80.5 62.5t-40 109.5t-10.5 161.5z M1042 326q0 -76 3.5 -115t13.5 -74q10 -4 31 -4q18 0 32.5 5t24.5 25.5t15 58.5t5 104q0 72 -4 111.5t-14 74.5q-16 6 -33 6q-18 0 -31.5 -5t-22.5 -25.5t-14.5 -58.5t-5.5 -103z" />
<glyph unicode="&#x26;" horiz-adv-x="1069" d="M66 414q0 43 7 92t24.5 96t47 86t76.5 62q-41 37 -64.5 76.5t-35.5 79.5t-15.5 78t-3.5 73q0 143 94.5 231t284.5 88q113 0 186.5 -9t145.5 -32l-27 -284q-55 12 -111.5 19t-115.5 7t-95 -18.5t-36 -75.5q0 -43 12.5 -74.5t42.5 -77.5h553l-28 -274h-150v-496 q-31 -18 -78 -34.5t-103 -28.5t-115.5 -18.5t-110.5 -6.5q-86 0 -158 18.5t-122 66.5t-77.5 134.5t-27.5 221.5zM393 430q0 -57 4 -92t14.5 -54.5t27.5 -25.5t42 -6q29 0 48.5 2t35.5 6v297h-10q-61 0 -90 -3t-57 -9q-6 -31 -10.5 -57.5t-4.5 -57.5z" />
<glyph unicode="'" horiz-adv-x="419" d="M84 791v561h285l-72 -561h-213z" />
<glyph unicode="(" horiz-adv-x="499" d="M61 598q0 246 48.5 468t136.5 429l217 -59q-139 -373 -139 -832q0 -117 6 -220t21.5 -200.5t41 -192.5t62.5 -194l-232 -59q-84 199 -123 408.5t-39 451.5z" />
<glyph unicode=")" horiz-adv-x="499" d="M37 -205q139 373 139 832q0 117 -6 220t-21.5 200.5t-41 192.5t-62.5 194l231 59q84 -199 123 -408.5t39 -451.5q0 -246 -48 -468t-136 -429z" />
<glyph unicode="*" horiz-adv-x="946" d="M37 954l67 207l119 -39q18 -6 68.5 -31.5t99.5 -52.5q-10 55 -18 112.5t-8 78.5v125h215v-125q0 -10 -2.5 -30.5t-6.5 -47.5t-9 -55.5t-9 -55.5q49 27 99 52.5t73 31.5l119 39l65 -205l-116 -40q-20 -6 -77 -15.5t-112 -15.5q43 -41 82 -79t53 -54l74 -103l-176 -127 l-74 101q-12 16 -38.5 65t-49.5 101q-27 -51 -52.5 -101.5t-37.5 -66.5l-70 -101l-178 129l74 101q12 16 51 55t80 78q-55 6 -110.5 15t-77.5 18z" />
<glyph unicode="+" horiz-adv-x="901" d="M45 506v272h262v279h281v-279h268v-272h-268v-287h-281v287h-262z" />
<glyph unicode="," horiz-adv-x="462" d="M82 -205v543h301v-272l-88 -271h-213z" />
<glyph unicode="-" horiz-adv-x="757" d="M88 473v287h582v-287h-582z" />
<glyph unicode="." horiz-adv-x="464" d="M82 0v338h301v-338h-301z" />
<glyph unicode="/" horiz-adv-x="800" d="M27 -246l495 1721h250l-493 -1721h-252z" />
<glyph unicode="0" horiz-adv-x="1077" d="M70 676q0 190 23.5 324.5t79.5 217t151.5 120.5t240.5 38q150 0 238 -35.5t133 -118.5t58.5 -217t13.5 -329t-25 -328t-83 -216t-153.5 -120t-236.5 -37q-150 0 -237 36t-132 119t-58 217t-13 329zM428 676q0 -141 5 -228.5t18 -154.5q35 -10 61 -10q35 0 60.5 12t43 52 t25.5 118t8 211q0 141 -6 228t-20 157q-31 10 -58 10q-37 0 -62.5 -12t-42 -53t-24.5 -120t-8 -210z" />
<glyph unicode="1" horiz-adv-x="741" d="M37 1255l465 97h121v-1352h-355v977l-211 -41z" />
<glyph unicode="2" horiz-adv-x="921" d="M49 172q0 76 7 137.5t24.5 112.5t47.5 96t73 88l256 248q25 29 36 52.5t11 60.5q0 20 -4 37.5t-8 33.5q-14 0 -28.5 1t-29.5 1q-80 0 -166 -14t-153 -33l-21 330q74 23 169 38t200 15q197 0 299 -88t102 -278q0 -127 -38 -214t-115 -159l-236 -217q-23 -25 -29 -44.5 t-6 -29.5q0 -6 1 -16.5t1 -12.5h389v-317h-774q0 2 -4 51t-4 121z" />
<glyph unicode="3" horiz-adv-x="905" d="M51 10l21 322q35 -8 85 -15.5t103 -7.5q66 0 108 6.5t65.5 21.5t32.5 42t9 65q0 18 -3 40t-7 46q-12 2 -23.5 2h-21.5q-47 0 -110.5 -3t-143.5 -11v301l194 10q76 4 100.5 36t24.5 83q0 23 -5 46.5t-11 45.5q-10 0 -19.5 1t-19.5 1q-88 0 -175 -11t-155 -25l-18 319 q66 20 157 35.5t214 15.5q203 0 290.5 -87t87.5 -259q0 -201 -120 -309q39 -25 62.5 -59.5t36.5 -76.5t18.5 -87t5.5 -88q0 -211 -115 -319.5t-377 -108.5q-84 0 -165 8t-126 20z" />
<glyph unicode="4" horiz-adv-x="1050" d="M35 543l319 809h533v-809h106l-2 -310h-104v-233h-342v233h-484zM375 522h176l22 557h-22z" />
<glyph unicode="5" horiz-adv-x="911" d="M57 10l21 320q35 -8 90 -15.5t108 -7.5q66 0 107 8.5t64.5 26.5t32.5 47t9 72q0 20 -2 43.5t-6 52.5q-82 -4 -157.5 -12t-147.5 -19l-84 125v701h737v-316h-405v-190q16 4 54 9t85 5q152 0 218.5 -102.5t66.5 -270.5q0 -123 -25.5 -217t-84 -158.5t-151.5 -97t-229 -32.5 q-92 0 -173 9t-128 19z" />
<glyph unicode="6" horiz-adv-x="983" d="M70 543q0 203 18 357.5t73.5 259t155 157.5t261.5 53q63 0 109 -2t81 -6t61.5 -9t51.5 -12l-19 -313q-23 6 -88 15.5t-139 9.5q-68 0 -110 -10.5t-64.5 -34t-30.5 -64.5t-10 -102q45 23 113.5 38t128.5 15q82 0 134 -28.5t79.5 -81t38 -125t10.5 -162.5 q0 -147 -29 -246.5t-85 -161t-140 -88.5t-195 -27q-106 0 -183 25t-126 88.5t-72.5 173t-23.5 281.5zM414 604q0 -109 3 -197t13 -141q27 -6 57 -6q31 0 53.5 9.5t37 35t20.5 68.5t6 110q0 35 -3 72t-7 66q-26 8 -59 8q-41 0 -73 -8.5t-48 -16.5z" />
<glyph unicode="7" horiz-adv-x="876" d="M47 1036v316h793v-316q-43 -61 -92.5 -144t-92.5 -163t-74.5 -146.5t-37.5 -95.5q-23 -154 -24 -270.5t-5 -216.5h-371q0 49 1 114.5t5.5 134t11.5 135.5t19 120q14 63 46 133t72 139.5t86 136t87 123.5h-424z" />
<glyph unicode="8" horiz-adv-x="1028" d="M66 381q0 119 37.5 202t138.5 130q-90 39 -124 115.5t-34 181.5q0 174 101.5 270t334.5 96q127 0 210 -24.5t131 -71.5t67.5 -114.5t19.5 -155.5q0 -102 -39 -180t-127 -115q102 -41 140.5 -128t38.5 -206q0 -199 -110 -302.5t-353 -103.5q-119 0 -202 25t-134 76 t-73.5 127t-22.5 178zM414 406q0 -37 3 -79t9 -69q12 -2 29.5 -3t40.5 -1q72 0 91 47t19 145q0 37 -5 67t-11 54l-109 -4q-43 -2 -55 -50t-12 -107zM424 938q0 -37 4 -68.5t10 -58.5l107 4q35 2 49 52t14 118q0 35 -2 65.5t-8 55.5q-12 2 -29.5 3t-40.5 1q-61 0 -82.5 -37 t-21.5 -135z" />
<glyph unicode="9" horiz-adv-x="991" d="M63 848q0 150 29 251t85 162.5t140 88t195 26.5q106 0 183 -24.5t127 -89t75 -174t25 -281.5q0 -211 -19.5 -365.5t-75 -257t-156 -152.5t-261.5 -50q-119 0 -189.5 9t-111.5 19l20 320q16 -4 74.5 -14.5t148.5 -10.5q70 0 113 5t65.5 25.5t30.5 60.5t8 110 q-47 -23 -114.5 -37t-126.5 -14q-82 0 -133.5 28.5t-81 80.5t-40 124t-10.5 160zM385 864q0 -41 4 -73.5t8 -63.5q12 -2 28 -2h30q41 0 73.5 8t49.5 17q-2 100 -5.5 189t-13.5 146q-29 6 -57 7q-31 0 -53.5 -9.5t-37 -35t-20.5 -69.5t-6 -114z" />
<glyph unicode=":" horiz-adv-x="477" d="M88 0v338h301v-338h-301zM88 748v337h301v-337h-301z" />
<glyph unicode=";" horiz-adv-x="477" d="M88 -205v543h301v-272l-88 -271h-213zM88 748v337h301v-337h-301z" />
<glyph unicode="&#x3c;" horiz-adv-x="901" d="M47 508v246l770 295v-281l-389 -129v-4l389 -141v-277z" />
<glyph unicode="=" horiz-adv-x="901" d="M66 326v254h770v-254h-770zM66 698v252h770v-252h-770z" />
<glyph unicode="&#x3e;" horiz-adv-x="901" d="M84 213v281l389 129v4l-389 141v276l770 -290v-246z" />
<glyph unicode="?" horiz-adv-x="761" d="M43 1329q72 20 159 33.5t191 13.5q186 0 260 -86t74 -246q0 -76 -22.5 -136t-58.5 -110t-79 -94.5t-86 -87.5v-184h-311v297l135 115q39 35 55.5 67.5t16.5 79.5q0 14 -2 35t-6 29q-8 2 -27.5 3t-30.5 1q-66 0 -127 -12.5t-121 -28.5zM162 0v311h330v-311h-330z" />
<glyph unicode="@" horiz-adv-x="1368" d="M61 387q0 201 51.5 362.5t146.5 276.5t228.5 177.5t298.5 62.5q160 0 260.5 -34t158 -96.5t78 -149.5t20.5 -191q0 -96 -29 -212t-87.5 -218.5t-148.5 -171t-215 -68.5q-49 0 -100 12l2 156q-45 -66 -101.5 -117t-115.5 -51q-33 0 -57.5 20.5t-41 52t-24.5 72.5t-8 84 q0 111 14.5 223.5t59.5 204.5t126.5 150.5t215.5 58.5q82 0 135 -14t98 -33l-123 -670q70 23 113 93.5t67.5 157.5t33.5 175t9 148q0 53 -7 98t-36 101q-53 23 -123.5 40t-158.5 17q-125 0 -227.5 -43t-174 -131t-111.5 -224.5t-40 -322.5q0 -135 29.5 -214t60.5 -128 q41 -10 92 -13t109 -3q35 0 80 3t89 9t81.5 13t58.5 13l-27 -169q-31 -8 -72.5 -15.5t-88 -11.5t-90.5 -7t-81 -3q-223 0 -325.5 133t-102.5 397zM586 340q39 12 71.5 36.5t61.5 53.5l69 383q-10 2 -20 3t-18 1q-164 0 -164 -473v-4z" />
<glyph unicode="A" horiz-adv-x="1069" d="M-4 0l319 1352h443l311 -1352h-360l-39 221h-289l-39 -221h-346zM430 498h193l-62 344q-14 74 -20 132t-11 101h-6q-4 -43 -12 -101.5t-20 -133.5z" />
<glyph unicode="B" horiz-adv-x="1030" d="M92 0v1352q37 2 80 4t99.5 4t130 3t169.5 1q109 0 181.5 -20.5t115.5 -62.5t61.5 -104.5t18.5 -146.5q0 -100 -34.5 -175t-112.5 -116q92 -37 128 -117.5t36 -201.5q0 -90 -17.5 -166t-61.5 -133.5t-122 -89t-199 -31.5h-473zM432 289h92q53 0 77 36.5t26 114.5 q0 45 -6.5 76t-14.5 49q-12 2 -29.5 3t-33.5 1q-23 0 -55.5 -1t-55.5 -3v-276zM432 809h78q53 0 82 34t29 111q0 82 -21 127q-12 2 -30 4t-38 2q-23 0 -51 -2t-49 -4v-272z" />
<glyph unicode="C" horiz-adv-x="851" d="M70 633q0 160 16 295t67.5 235.5t146.5 156.5t251 56q92 0 158.5 -15t95.5 -26l-21 -311l-17 4t-44 10t-60.5 11.5t-64.5 5.5q-59 0 -94 -14.5t-52.5 -59.5t-22.5 -128t-5 -220q0 -139 6 -213t16 -117q14 -2 30 -2h32q76 0 151.5 10.5t128.5 26.5v-313q-18 -8 -54 -17.5 t-78 -16.5t-85 -11.5t-79 -4.5q-152 0 -236 42t-126 125t-51 206t-9 285z" />
<glyph unicode="D" horiz-adv-x="1075" d="M92 0v1352q25 2 74 4t114.5 4t140.5 3t148 1q137 0 222.5 -34t133.5 -110.5t65.5 -201.5t17.5 -305q0 -166 -17.5 -298t-70 -224.5t-145.5 -141.5t-247 -49h-436zM446 293h78q41 0 65.5 23.5t38 72.5t17.5 126.5t4 186.5q0 115 -8 207t-27 158q-18 2 -36.5 3t-36.5 1 q-29 0 -52.5 -2t-42.5 -4v-772z" />
<glyph unicode="E" horiz-adv-x="866" d="M92 0v1352h699l-11 -314h-334v-207h322v-296h-322v-218h342v-317h-696z" />
<glyph unicode="F" horiz-adv-x="819" d="M92 0v1352h666l-8 -314h-306v-295h295v-307h-295v-436h-352z" />
<glyph unicode="G" horiz-adv-x="1013" d="M68 633q0 178 21.5 316t79.5 233.5t160.5 144.5t262.5 49q111 0 194.5 -16.5t137.5 -32.5l-19 -307l-27 5q-26 5 -67 12t-88 13.5t-86 6.5q-68 0 -110 -14.5t-65.5 -58.5t-31.5 -128t-8 -221q0 -150 7 -229.5t22 -124.5q12 -2 22 -2h19q33 0 67.5 3t69.5 11v225h-92v275 h397v-725q-29 -16 -78 -32t-109.5 -30t-124 -22.5t-120.5 -8.5q-158 0 -245 48.5t-129 134.5t-51 206.5t-9 268.5z" />
<glyph unicode="H" horiz-adv-x="1099" d="M92 0v1352h354v-506h209v506h353v-1352h-353v524h-209v-524h-354z" />
<glyph unicode="I" horiz-adv-x="538" d="M92 0v1352h354v-1352h-354z" />
<glyph unicode="J" horiz-adv-x="565" d="M-23 -78q41 53 79 109.5t65 115.5v1205h354v-1088q0 -100 -17.5 -174t-50 -134t-78.5 -110.5t-102 -101.5z" />
<glyph unicode="K" horiz-adv-x="1089" d="M92 0v1352h354v-525l33 2l217 523h373l-291 -680l307 -666l-383 -18l-225 544h-31v-532h-354z" />
<glyph unicode="L" horiz-adv-x="765" d="M92 0v1352h354v-1035h285l-4 -317h-635z" />
<glyph unicode="M" horiz-adv-x="1490" d="M57 0l97 1352h440l108 -545q6 -29 12.5 -70t12.5 -82t11 -75.5t7 -51.5h7q0 16 5 52t12 77t14.5 81t13.5 69l116 545h430l87 -1352h-332l-23 530q-4 92 -5 167v45q0 41 1 63h-6q-6 -39 -22.5 -110.5t-41.5 -164.5l-139 -530h-258l-123 532q-10 45 -20 91.5t-18.5 85.5 t-13.5 67.5t-5 36.5h-6v-36.5v-68.5t-2 -87.5t-4 -90.5l-23 -530h-332z" />
<glyph unicode="N" horiz-adv-x="1157" d="M92 0v1352h354l199 -473q27 -61 49.5 -120t38.5 -106h6q-2 49 -4 112.5t-2 139.5v447h332v-1352h-352l-201 453q-27 59 -49.5 118.5t-38.5 106.5h-6q2 -49 4 -113.5t2 -140.5v-424h-332z" />
<glyph unicode="O" d="M66 653q0 152 19 284t74.5 229.5t154 153.5t253.5 56q150 0 239 -45t135 -132t59.5 -213t13.5 -288q0 -152 -19.5 -283.5t-75 -229t-152.5 -154t-253 -56.5q-150 0 -239 45.5t-135 132.5t-60 213t-14 287zM420 655q0 -147 7 -232t19 -134q27 -6 66 -6q51 0 81 23.5 t45 73.5t19.5 128.5t4.5 187.5q0 150 -8.5 235t-18.5 132q-25 8 -64 8q-51 0 -81.5 -24.5t-46 -74.5t-19.5 -129t-4 -188z" />
<glyph unicode="P" horiz-adv-x="1038" d="M92 0v1352q41 2 100.5 5t125 4t132 2t125.5 1q125 0 206 -29.5t128 -87t65.5 -140.5t18.5 -189q0 -115 -18.5 -216.5t-63.5 -178.5t-122.5 -122t-196.5 -45h-146v-356h-354zM446 655h91q55 0 81.5 49.5t26.5 165.5q0 72 -8 121t-16 76q-8 2 -28 4t-46 2q-29 0 -59.5 -2 t-41.5 -4v-412z" />
<glyph unicode="Q" d="M66 653q0 152 19 284t74.5 229.5t154 153.5t253.5 56q150 0 239 -45t135 -132t59.5 -213t13.5 -288q0 -180 -29 -329.5t-111 -247.5l213 -182l-241 -218l-283 256q-12 0 -24.5 -1t-24.5 -1q-150 0 -239 45.5t-135 132.5t-60 213t-14 287zM420 655q0 -147 7 -232t19 -134 q27 -6 66 -6q51 0 81 23.5t45 73.5t19.5 128.5t4.5 187.5q0 150 -8.5 235t-18.5 132q-25 8 -64 8q-51 0 -81.5 -24.5t-46 -74.5t-19.5 -129t-4 -188z" />
<glyph unicode="R" horiz-adv-x="1062" d="M92 0v1352q41 2 89 4t108.5 4t134.5 3t166 1q119 0 195.5 -27.5t122.5 -80t64.5 -129t18.5 -175.5q0 -168 -32.5 -283.5t-124.5 -172.5l196 -490l-360 -22l-164 465h-60v-449h-354zM446 698h91q31 0 51 9.5t32.5 31t17.5 58.5t5 94q0 68 -6 112t-16 64q-10 2 -28 4t-42 2 q-29 0 -59.5 -1t-45.5 -5v-369z" />
<glyph unicode="S" horiz-adv-x="823" d="M59 16v336q45 -18 112 -35.5t161 -17.5q16 0 30.5 1t30.5 3q6 20 6 51q0 18 -5 36t-16 37t-29.5 46t-47.5 66l-104 141q-20 27 -42 59.5t-40.5 71.5t-30.5 84t-12 96q0 186 105.5 285.5t318.5 99.5q104 0 171.5 -12t98.5 -21l-18 -313q-35 10 -82.5 19.5t-112.5 9.5 q-51 0 -79 -17.5t-28 -60.5q0 -41 24 -75t67 -89l108 -141q47 -59 83 -131t36 -172q0 -84 -26.5 -157t-80 -126t-134.5 -84t-187 -31t-174 14.5t-103 26.5z" />
<glyph unicode="T" horiz-adv-x="870" d="M31 1038v314h805v-314h-226v-1038h-352v1038h-227z" />
<glyph unicode="U" horiz-adv-x="1089" d="M86 494v858h352v-838q0 -68 3 -124t12 -101q35 -8 75 -8q35 0 58.5 10t38 36.5t20.5 71.5t6 115v838h353v-856q0 -164 -33 -265.5t-96.5 -159t-154.5 -78t-208 -20.5q-127 0 -209 32t-130 96.5t-67.5 161.5t-19.5 231z" />
<glyph unicode="V" horiz-adv-x="1067" d="M10 1352h361l100 -682q14 -92 27.5 -198.5t21.5 -203.5h6q10 96 24.5 201.5t31.5 202.5l114 680h371l-295 -1352h-487z" />
<glyph unicode="W" horiz-adv-x="1587" d="M8 1352h367l76 -621q8 -68 15 -134.5t9 -121.5h6q4 57 14.5 120.5t22.5 135.5l113 621h332l94 -621q10 -74 19 -136.5t14 -119.5h6q4 55 11 119.5t17 136.5l93 621h354l-240 -1352h-440l-84 514q-12 72 -20.5 135.5t-14.5 118.5h-6q-4 -57 -12.5 -118.5t-20.5 -135.5 l-84 -514h-387z" />
<glyph unicode="X" horiz-adv-x="1093" d="M12 0l250 698l-229 654h389l82 -363q14 -57 19 -97t9 -69h7q4 29 13 70t28 100l106 359h381l-260 -676l278 -676h-387l-127 381q-31 96 -36 160h-7q-6 -61 -36 -168l-113 -373h-367z" />
<glyph unicode="Y" horiz-adv-x="1015" d="M6 1352h367l102 -430q14 -59 21.5 -107.5t11.5 -85.5h6q4 41 12.5 87t24.5 108l113 428h364l-348 -910v-442h-354v442z" />
<glyph unicode="Z" horiz-adv-x="901" d="M55 0v317l373 721h-340v314h737v-314l-362 -721h375v-317h-783z" />
<glyph unicode="[" horiz-adv-x="614" d="M117 -246v1721h448v-222h-203v-1278h203v-221h-448z" />
<glyph unicode="\" horiz-adv-x="937" d="M27 1475h256l628 -1721h-256z" />
<glyph unicode="]" horiz-adv-x="614" d="M49 -25h203v1278h-203v222h449v-1721h-449v221z" />
<glyph unicode="^" horiz-adv-x="942" d="M33 764l295 588h286l295 -588h-245l-197 416l-197 -416h-237z" />
<glyph unicode="_" horiz-adv-x="770" d="M82 0h606v-287h-606v287z" />
<glyph unicode="`" horiz-adv-x="796" d="M127 1288l78 234l479 -197l-55 -168z" />
<glyph unicode="a" horiz-adv-x="968" d="M45 315q0 182 100.5 262t276.5 80q63 0 113 -6v29q0 35 -4.5 65.5t-8.5 53.5q-37 6 -86 6q-82 0 -159.5 -13.5t-145.5 -35.5l-22 286q29 12 76.5 24.5t107 22t126 15.5t132.5 6q182 0 259 -77t77 -257v-776h-328v96q-43 -41 -109.5 -77.5t-156.5 -36.5q-131 0 -189.5 85 t-58.5 248zM367 338q0 -70 12 -100q10 -4 23.5 -4.5t25.5 -0.5q57 0 107 27v201q-16 2 -33 3t-39 1q-96 0 -96 -127z" />
<glyph unicode="b" horiz-adv-x="1056" d="M86 33v1362l352 39v-449q18 18 45 41t61 41t74.5 30.5t88.5 12.5q94 0 151 -40t88 -111.5t40 -173t9 -224.5q0 -164 -32.5 -274.5t-94 -178t-147.5 -97t-193 -29.5q-201 0 -305 20.5t-137 30.5zM438 268q16 -6 36 -8t36 -2q31 0 57.5 7t45 36t29.5 84t11 152 q0 94 -6 156.5t-18 103.5q-6 2 -14.5 3t-24.5 1q-37 0 -78 -11.5t-74 -27.5v-494z" />
<glyph unicode="c" horiz-adv-x="802" d="M61 532q0 297 110 437.5t347 140.5q61 0 120.5 -9t113.5 -30l-25 -293q-45 14 -96 19.5t-80 5.5t-55.5 -7.5t-47 -34t-31.5 -78.5t-11 -140q0 -94 4 -155.5t12 -104.5h2q39 0 83 4t84 10t74.5 13t59.5 16l20 -295q-37 -16 -125 -36t-194 -20q-121 0 -192.5 37 t-110.5 107.5t-50.5 174t-11.5 238.5z" />
<glyph unicode="d" horiz-adv-x="1054" d="M61 524q0 168 36 278.5t98.5 176t148.5 92.5t186 27q20 0 41 -1t41 -3v301l355 39v-1434h-334v123q-16 -20 -43 -45t-62.5 -46.5t-80 -35.5t-95.5 -14q-94 0 -151.5 39.5t-88 112.5t-41 172.5t-10.5 217.5zM406 549q0 -92 7 -150.5t17 -101.5q8 -2 15.5 -2h25.5 q33 0 71 9t70 26v487q-31 6 -61 6q-31 0 -57.5 -8t-46 -36.5t-30.5 -83t-11 -146.5z" />
<glyph unicode="e" horiz-adv-x="960" d="M61 545q0 152 29 259t87.5 175t144.5 99.5t200 31.5q125 0 201 -35t116 -95t52 -140t12 -172q0 -127 -18 -252l-475 -29q2 -35 5 -66.5t9 -52.5q16 -2 33.5 -3t48.5 -1q47 0 99 5t100.5 13.5t86 16.5t56.5 12l20 -274q-18 -10 -55 -20.5t-90 -19.5t-117.5 -15.5 t-138.5 -6.5q-145 0 -226 48.5t-121 128t-49.5 182t-9.5 211.5zM408 586l178 12q2 25 2 41v33q0 49 -4 93t-13 73q-27 8 -45 8q-31 0 -53 -6t-36.5 -33t-21.5 -78t-7 -143z" />
<glyph unicode="f" horiz-adv-x="727" d="M49 678v264l96 25v141q0 162 72 243t244 81q96 0 157.5 -8.5t98.5 -18.5l-21 -283q-16 4 -47 8.5t-71 4.5q-49 0 -80 -7q-2 -10 -4 -42.5t-2 -86.5v-18l202 8v-287l-194 -8v-694h-355v682z" />
<glyph unicode="g" horiz-adv-x="1019" d="M47 -106q0 41 14.5 72.5t39 56t56 42t64.5 29.5l-127 78q12 61 41 127t60 119q-47 25 -74 60.5t-42.5 77.5t-19.5 89t-4 98q0 104 34 175t96.5 114t150.5 60.5t196 17.5h35l4 233l375 41v-57l-133 -268q49 -25 80 -59.5t46 -77.5t20.5 -91.5t5.5 -99.5q0 -106 -37 -177 t-101.5 -114t-151.5 -61.5t-188 -18.5h-34.5t-32.5 2q-10 -20 -17.5 -43.5t-13.5 -48.5h182q92 0 165 -10t125 -37.5t80 -77t28 -127.5q0 -82 -37 -146.5t-103.5 -108.5t-160 -67.5t-205.5 -23.5q-193 0 -304.5 52.5t-111.5 169.5zM379 -37q0 -39 4 -59q16 -6 44 -11.5 t79 -5.5q78 0 109.5 23.5t31.5 62.5q0 33 -10 58q-12 4 -38 6t-60 2h-150q-4 -16 -7 -34.5t-3 -41.5zM420 733q0 -55 4 -93t10 -65q10 -4 23.5 -6t25.5 -2q25 0 46.5 4t37 20.5t23.5 48.5t8 85q0 109 -14 160q-6 4 -19.5 5t-27.5 1q-27 0 -48.5 -4t-37 -20.5t-23.5 -48.5 t-8 -85z" />
<glyph unicode="h" horiz-adv-x="1087" d="M88 0v1395l354 39v-441q59 39 143.5 78t174.5 39q121 0 182.5 -54.5t61.5 -181.5v-874h-355v678q0 43 -2 66.5t-6 46.5q-8 2 -22.5 3t-26.5 1q-45 0 -82 -12.5t-68 -30.5v-752h-354z" />
<glyph unicode="i" horiz-adv-x="530" d="M84 1180v231l362 21v-232zM88 0v1079l354 21v-1100h-354z" />
<glyph unicode="j" horiz-adv-x="530" d="M-49 -150q78 104 141 226v1003l352 21v-953q0 -84 -14 -147t-44 -117.5t-76 -104.5t-109 -106zM88 1180v231l363 21v-232z" />
<glyph unicode="k" horiz-adv-x="1040" d="M88 0v1395l352 39v-764h29l195 409l374 21l-260 -533l269 -559l-388 -22l-186 444h-33v-430h-352z" />
<glyph unicode="l" horiz-adv-x="530" d="M88 0v1395l354 39v-1434h-354z" />
<glyph unicode="m" horiz-adv-x="1605" d="M88 0v1079l332 21v-129q25 18 62.5 42.5t82.5 46t96.5 36t102.5 14.5q164 0 207 -131q29 23 67.5 46.5t82.5 41.5t90 30.5t94 12.5q217 0 217 -223v-887h-355v649q0 35 -1 74t-7 70q-8 2 -19.5 2h-21.5q-35 -4 -69.5 -12.5t-65.5 -24.5v-758h-354v649q0 35 -1 74t-7 70 q-8 2 -19.5 2h-23.5q-35 -4 -70 -12.5t-68 -26.5v-756h-352z" />
<glyph unicode="n" horiz-adv-x="1087" d="M88 0v1079l332 21v-121q29 20 66.5 42.5t81.5 42t92.5 33t97.5 13.5q121 0 183.5 -54.5t62.5 -181.5v-874h-355v678q0 43 -2 66.5t-6 46.5q-16 4 -26.5 4h-22.5q-45 0 -83 -12.5t-69 -32.5v-750h-352z" />
<glyph unicode="o" horiz-adv-x="1044" d="M59 543q0 164 38 272.5t103.5 174t153.5 93t191 27.5q147 0 234 -44t133 -121t59.5 -179t13.5 -219q0 -164 -38 -273.5t-103.5 -175t-154.5 -94.5t-189 -29q-147 0 -235.5 45.5t-133.5 122t-58.5 180t-13.5 220.5zM414 553q0 -109 4 -175.5t14 -113.5q12 -6 26.5 -9 t30.5 -3q27 0 52.5 6t45 33.5t32 84.5t12.5 159q0 109 -5 175t-16 113q-27 12 -57 13q-20 0 -48 -7.5t-48.5 -34t-31.5 -84t-11 -157.5z" />
<glyph unicode="p" horiz-adv-x="1060" d="M88 -328v1407l332 21v-133q20 23 49 47t65.5 45.5t80.5 36t94 14.5q94 0 151.5 -39t88 -109.5t39.5 -170t9 -220.5q0 -164 -31.5 -275.5t-92 -180t-146.5 -98t-197 -29.5h-47t-43 2v-279zM440 270q31 -6 72 -6q27 0 53.5 8.5t46 38t31.5 85t12 147.5q0 88 -7 150.5 t-17 103.5q-8 4 -39 4q-37 0 -78 -11.5t-74 -27.5v-492z" />
<glyph unicode="q" horiz-adv-x="1054" d="M61 520q0 170 33 284t94.5 181.5t148.5 96t193 28.5q74 0 128.5 -13.5t93.5 -35.5l215 41v-1391l-355 -39v426q-41 -41 -105.5 -78.5t-154.5 -37.5q-94 0 -151.5 39.5t-88 112.5t-41 171t-10.5 215zM406 553q0 -92 7 -153.5t17 -102.5q6 -2 14.5 -3t26.5 -1q33 0 71 10 t70 27v497q-14 4 -29.5 6.5t-27.5 2.5q-35 0 -62.5 -10.5t-47 -40t-29.5 -85t-10 -147.5z" />
<glyph unicode="r" horiz-adv-x="755" d="M88 0v1079l332 21v-221h6q18 41 42 80.5t50.5 72.5t58 52.5t68.5 19.5t59.5 -4t32.5 -8l-30 -330q-82 -4 -146.5 -22.5t-120.5 -51.5v-688h-352z" />
<glyph unicode="s" horiz-adv-x="765" d="M51 4l17 311q37 -12 89 -23t122 -11q16 0 34.5 1t34.5 3q6 14 6 32q0 25 -13 46.5t-42 48.5l-106 104q-49 49 -88 120t-39 163q0 147 96 229t282 82q86 0 154 -10t109 -21l-21 -297q-33 6 -79 13.5t-89 7.5q-84 0 -84 -53q0 -23 14.5 -42.5t32.5 -37.5l111 -109 q55 -53 88 -115.5t33 -146.5q0 -162 -97.5 -243t-289.5 -81q-90 0 -165 9.5t-110 19.5z" />
<glyph unicode="t" horiz-adv-x="698" d="M37 778v266l108 25l27 242l313 35v-261l162 7v-285l-162 -8v-383q0 -35 2 -71t7 -64q37 2 73.5 9t65.5 15l35 -276q-20 -12 -56.5 -22.5t-76 -16.5t-77.5 -10.5t-63 -4.5q-131 2 -196.5 62.5t-65.5 214.5v530z" />
<glyph unicode="u" d="M82 244v835l352 21v-682q0 -29 3 -58.5t12 -54.5q8 -2 36 -2q80 0 154 45v731l352 21v-1100h-329v121q-20 -18 -55.5 -42t-79.5 -45.5t-98 -36.5t-114 -15q-111 0 -172 65.5t-61 196.5z" />
<glyph unicode="v" horiz-adv-x="1036" d="M6 1085h389l90 -587q12 -82 19.5 -132.5t9.5 -101.5h6q6 51 15.5 102.5t25.5 133.5l121 585h348l-268 -1085h-488z" />
<glyph unicode="w" horiz-adv-x="1513" d="M18 1085h367l47 -538q6 -66 11.5 -127.5t5.5 -100.5h6q4 39 14 100.5t25 131.5l106 534h320l90 -534q10 -70 18 -131.5t12 -100.5h7q2 39 8 100.5t16 127.5l82 538h352l-239 -1085h-437l-57 360q-12 82 -19.5 132.5t-9.5 101.5h-6q-4 -51 -12 -101.5t-25 -132.5l-71 -360 h-391z" />
<glyph unicode="x" horiz-adv-x="1030" d="M0 0l219 555l-176 524l379 25l63 -283q14 -59 20.5 -93t10.5 -73h6q4 39 10.5 73t22.5 93l68 264h395l-203 -530l191 -549l-367 -24l-90 333q-12 45 -19.5 86t-11.5 80h-6q-4 -41 -11 -77.5t-24 -94.5l-80 -309h-397z" />
<glyph unicode="y" horiz-adv-x="1042" d="M10 1085h377l102 -563q10 -49 16.5 -97t10.5 -93h6q4 45 10.5 90t16.5 100l96 563h385l-242 -1087q-14 -68 -40.5 -126t-70.5 -102t-110.5 -70t-160.5 -26q-133 0 -205 17.5t-86 23.5v299q35 -10 93 -21t136 -11q55 0 85 17t40 69l8 53h-233z" />
<glyph unicode="z" horiz-adv-x="811" d="M49 0v283l313 520h-286v282h669v-282l-294 -520h305l-4 -283h-703z" />
<glyph unicode="{" horiz-adv-x="667" d="M16 522v178q4 0 39 11.5t75 36t73 64.5t33 99v242q0 131 73.5 218t255.5 120l70 -182q-53 -10 -85 -28.5t-48.5 -45.5t-21.5 -62.5t-5 -80.5v-174q0 -45 -9 -87.5t-36 -80t-76 -71.5t-129 -63v-6l250 -131v-373q0 -49 10.5 -80.5t31 -53t51 -37t71.5 -29.5l-72 -180 q-63 6 -123.5 27.5t-106.5 57t-73.5 87t-27.5 118.5v375z" />
<glyph unicode="|" horiz-adv-x="479" d="M117 -246v1721h245v-1721h-245z" />
<glyph unicode="}" horiz-adv-x="667" d="M29 1309l71 180q63 -6 124 -27.5t107 -57.5t73.5 -87t27.5 -119v-375l219 -131v-178q-4 0 -38.5 -11t-74.5 -36t-73 -65t-33 -99v-242q0 -131 -73.5 -218t-256.5 -119l-69 182q53 10 85 28.5t48 45t21.5 62.5t5.5 81v174q0 45 9 87t35.5 80t75.5 71.5t129 62.5v6 l-249 131v373q0 49 -10.5 81t-31 53.5t-51 36.5t-71.5 30z" />
<glyph unicode="~" horiz-adv-x="901" d="M45 729q20 18 50 40t61.5 39t62.5 28.5t53 11.5q55 0 102.5 -24.5t91.5 -55.5t85 -58.5t84 -35.5l174 88l47 -223q-20 -20 -50 -42t-61.5 -40.5t-62.5 -29.5t-53 -11q-55 0 -102.5 25.5t-92.5 58t-87 62.5t-85 36l-170 -92z" />
<glyph unicode="&#xa1;" horiz-adv-x="552" d="M84 -305l53 958h291l33 -919zM117 774v311h334v-311h-334z" />
<glyph unicode="&#xa2;" horiz-adv-x="796" d="M45 532q0 246 75 383.5t234 178.5v239h189v-225q104 -4 192 -37l-24 -293q-45 14 -96.5 19.5t-79.5 5.5q-29 0 -55.5 -7.5t-47 -34t-32 -78.5t-11.5 -140q0 -96 4 -156.5t15 -103.5q39 0 83 4t83.5 10t74.5 13t60 16l20 -295q-25 -12 -74 -24.5t-112 -20.5v-232h-189v223 q-102 8 -163.5 48.5t-93 111t-42 170t-10.5 225.5z" />
<glyph unicode="&#xa3;" horiz-adv-x="897" d="M41 252l170 301h-131v178h133q-16 123 -24.5 198t-8.5 115q0 152 86 242t262 90q57 0 109.5 -6t92.5 -14t66.5 -15.5t32.5 -9.5l-16 -303q-47 10 -93 18.5t-85 8.5q-63 0 -86 -29t-23 -78q0 -27 3 -73t16 -144h250v-178h-240l-115 -236h373l-2 -317h-735z" />
<glyph unicode="&#xa4;" horiz-adv-x="1263" d="M51 297l158 152q-66 111 -66 241q0 127 66 242l-158 153l182 183l156 -156q115 63 240 64q131 0 241 -64l156 158l184 -180l-157 -160q61 -111 61 -240q0 -131 -61 -237l157 -156l-184 -186l-156 157q-53 -31 -114.5 -48t-126.5 -17q-66 0 -125.5 17.5t-114.5 47.5 l-153 -153zM406 692q0 -47 17 -88t48 -71.5t71 -48t87 -17.5t88 17.5t70.5 48t47 71.5t17.5 88q0 45 -17.5 86t-47 72t-70.5 48t-88 17t-87 -17t-71 -48t-48 -72t-17 -86z" />
<glyph unicode="&#xa5;" horiz-adv-x="1087" d="M37 1352h369l131 -578h8l145 578h365l-234 -607h131v-180h-200l-39 -102h239v-178h-243v-285h-353v285h-241v178h237l-37 102h-200v180h137z" />
<glyph unicode="&#xa6;" horiz-adv-x="483" d="M119 -246v701h246v-701h-246zM119 774v701h246v-701h-246z" />
<glyph unicode="&#xa7;" horiz-adv-x="1038" d="M37 610q0 115 49 198t127 132q-27 66 -27 150q0 129 99.5 207.5t271.5 78.5q72 0 133.5 -8t107.5 -17.5t71.5 -17.5t27.5 -8l-29 -299q-20 6 -58 14.5t-81 17.5t-81 15t-58 6q-59 0 -60 -43q0 -37 24 -56t69 -54l344 -256q8 -18 14 -48t10 -61t7 -57.5t3 -38.5 q0 -129 -51 -217t-123 -135q31 -68 31 -138q0 -59 -21.5 -113.5t-64.5 -94t-109.5 -63t-156.5 -23.5q-59 0 -118.5 6t-112 14t-90.5 16.5t-54 12.5l23 303q20 -6 59 -15.5t87 -17.5t102.5 -14t107.5 -6h20.5t20.5 2q-16 39 -50 72.5t-77 66.5l-328 239q-23 53 -41 112.5 t-18 137.5zM315 657q0 -27 3.5 -40t9.5 -29l366 -283q0 -2 1 -2t1 -2q14 23 23.5 50.5t9.5 60.5q0 25 -3 42t-7 27l-367 283q-37 -47 -37 -107z" />
<glyph unicode="&#xa8;" horiz-adv-x="796" d="M41 1198v223l311 19v-226zM444 1198v223l312 19v-226z" />
<glyph unicode="&#xa9;" horiz-adv-x="1337" d="M63 649q0 346 162 537.5t467 191.5q156 0 266.5 -46t181 -134t103.5 -214t33 -286q0 -172 -42 -306t-123 -227t-200.5 -142.5t-273.5 -49.5q-166 0 -275.5 51.5t-176 141.5t-94.5 214t-28 269zM231 684q0 -102 12.5 -180t33 -138.5t45 -104.5t49.5 -81 q47 -20 107.5 -34.5t137.5 -14.5q260 0 378 132t118 409q0 98 -11 172t-29.5 131t-42 100t-48.5 78q-47 27 -111.5 49.5t-158.5 22.5q-252 0 -366 -132.5t-114 -408.5zM406 647q0 98 10 182t41.5 146.5t91 98.5t156.5 36q59 0 99 -9t60 -16l-12 -196l-10 3q-11 3 -28 7 t-37.5 7t-41.5 3q-37 0 -57.5 -9t-31.5 -36.5t-14 -79t-3 -137.5q0 -84 4 -129t10 -74h37q47 0 93 7.5t81 17.5v-199q-12 -6 -34.5 -11t-48.5 -9t-53.5 -7t-49.5 -3q-94 0 -147.5 26.5t-79 78.5t-30.5 128t-5 174z" />
<glyph unicode="&#xaa;" horiz-adv-x="772" d="M61 778q0 139 75 199.5t208 60.5q23 0 44.5 -1t39.5 -3v17q0 25 -2 48t-6 42q-16 2 -30.5 2h-33.5q-61 0 -121.5 -9.5t-111.5 -27.5l-17 221q23 8 60 17.5t81 16.5t94 11t99 4q137 0 195.5 -58t58.5 -196v-583h-245v77q-33 -31 -84.5 -59.5t-116.5 -28.5 q-100 0 -143.5 63.5t-43.5 186.5zM303 795q0 -53 10 -72q4 -4 14.5 -4h20.5q43 0 80 20v152q-12 0 -25.5 1t-27.5 1q-72 0 -72 -98z" />
<glyph unicode="&#xab;" d="M43 569l203 465h309l-201 -465l199 -481h-307zM520 569l205 465h307l-201 -465l199 -481h-305z" />
<glyph unicode="&#xac;" horiz-adv-x="901" d="M55 547v270h770v-493h-278v223h-492z" />
<glyph unicode="&#xad;" horiz-adv-x="757" d="M88 473v287h582v-287h-582z" />
<glyph unicode="&#xae;" horiz-adv-x="921" d="M53 934q0 213 110.5 328.5t303.5 115.5q195 0 298 -108.5t103 -311.5q0 -211 -112.5 -327.5t-304.5 -116.5q-209 0 -303.5 108.5t-94.5 311.5zM178 942q0 -57 7.5 -100t19.5 -76t27.5 -57.5t29.5 -44.5q35 -12 80 -20.5t94 -8.5q154 0 230.5 76.5t76.5 240.5 q0 106 -27.5 169t-58.5 104q-35 12 -80 23.5t-94 11.5q-152 0 -228.5 -76t-76.5 -242zM313 723v446q29 2 67 3.5t99 1.5q80 0 107.5 -36t27.5 -102q0 -53 -11 -92t-40 -57l66 -160l-123 -6l-53 147h-27v-145h-113zM426 948h41q20 0 27.5 15.5t7.5 52.5q0 41 -6 57 q-4 0 -10.5 1t-16.5 1q-8 0 -22.5 -1t-20.5 -1v-125z" />
<glyph unicode="&#xaf;" horiz-adv-x="796" d="M94 1204v221l608 19v-223z" />
<glyph unicode="&#xb0;" horiz-adv-x="849" d="M45 1004q0 82 28.5 150.5t80 118.5t121 77.5t151.5 27.5q86 0 155.5 -27.5t120 -77.5t77 -118.5t26.5 -150.5q0 -80 -28.5 -149t-80 -118t-121 -76.5t-151.5 -27.5q-86 0 -155.5 27.5t-120 76.5t-77 118t-26.5 149zM268 1010q0 -61 11.5 -92t21.5 -52q20 -10 50 -14 t59 -4q82 0 127 38t45 118q0 59 -10.5 94t-20.5 51q-18 10 -51 15t-64 5q-168 0 -168 -159z" />
<glyph unicode="&#xb1;" horiz-adv-x="901" d="M66 137v271h770v-271h-770zM66 719v272h241v215h281v-215h248v-272h-248v-221h-281v221h-241z" />
<glyph unicode="&#xb2;" horiz-adv-x="657" d="M45 559q0 104 20.5 171t79.5 122l181 168q16 16 23 32.5t7 39.5q0 14 -2 25t-6 22q-10 2 -19.5 2h-19.5q-53 0 -113.5 -9.5t-107.5 -21.5l-12 223q51 16 120.5 26.5t137.5 10.5q133 0 202.5 -59.5t69.5 -188.5q0 -86 -24.5 -145t-77.5 -107l-166 -145 q-16 -16 -19.5 -28.5t-3.5 -18.5v-19h269v-217h-533q0 2 -3 36t-3 81z" />
<glyph unicode="&#xb3;" horiz-adv-x="649" d="M49 453l12 219q25 -6 61 -11.5t73 -5.5q88 0 115.5 17.5t27.5 68.5q0 23 -6 58h-29q-35 0 -79 -2t-97 -6v202q37 4 71.5 5t65.5 3q49 4 65.5 23.5t16.5 54.5q0 29 -10 60q-6 2 -13.5 2h-13.5q-59 0 -119.5 -7.5t-107.5 -17.5l-14 219q47 14 111.5 24.5t146.5 10.5 q135 0 198.5 -59t63.5 -176q0 -68 -23.5 -120t-64.5 -89q53 -33 70.5 -90.5t17.5 -116.5q0 -141 -79 -214t-259 -73q-55 0 -112.5 5t-88.5 16z" />
<glyph unicode="&#xb4;" horiz-adv-x="796" d="M123 1325l481 197l78 -234l-502 -131z" />
<glyph unicode="&#xb5;" horiz-adv-x="1191" d="M109 -328v1407l354 21v-674q0 -31 2 -64.5t12 -54.5q8 -2 37 -2q55 0 96 16.5t58 28.5v729l352 21v-684q0 -51 2 -99q2 -20 4 -38q57 2 113 16l14 -281q-37 -16 -102.5 -27.5t-122.5 -11.5q-80 0 -130 25t-73 59.5t-31 63.5q-8 -8 -27.5 -25.5t-65.5 -44t-83 -39 t-55 -16.5v-287z" />
<glyph unicode="&#xb6;" horiz-adv-x="1280" d="M41 805q0 158 35 263.5t98.5 167.5t151.5 89t192 27h250v-1659h-186v553h-109q-227 0 -329.5 143t-102.5 416zM889 -307v1659h356v-174h-168v-1485h-188z" />
<glyph unicode="&#xb7;" horiz-adv-x="473" d="M86 514v338h301v-338h-301z" />
<glyph unicode="&#xb8;" horiz-adv-x="796" d="M223 -246q86 0 120 7.5t34 33.5q0 25 -27.5 44.5t-97.5 35.5l-6 33l114 137q33 -23 72 -42t72 -45t54.5 -64t21.5 -95q0 -90 -80 -130t-252 -40z" />
<glyph unicode="&#xb9;" horiz-adv-x="542" d="M31 1286l329 66h82v-910h-247v654l-150 -29z" />
<glyph unicode="&#xba;" horiz-adv-x="821" d="M63 946q0 123 28 206t77 132t115.5 70.5t144.5 21.5q113 0 178.5 -33.5t99 -92t44 -135.5t10.5 -165q0 -123 -29 -205.5t-78 -133t-115.5 -72t-142.5 -21.5q-113 0 -178 35t-99 93.5t-44.5 135t-10.5 164.5zM330 954q0 -82 3 -132t11 -87q10 -4 20.5 -6t20.5 -2 q20 0 39.5 5t34 25.5t24 63.5t9.5 119q0 82 -4.5 132t-12.5 87q-10 4 -19.5 6t-19.5 2q-20 0 -39.5 -5t-34 -26.5t-23.5 -63.5t-9 -118z" />
<glyph unicode="&#xbb;" d="M47 88l201 465l-199 481h305l205 -481l-205 -465h-307zM524 88l201 465l-199 481h308l202 -481l-202 -465h-310z" />
<glyph unicode="&#xbc;" horiz-adv-x="1660" d="M35 1286l329 66h82v-910h-247v654l-150 -29zM322 0l670 1352h229l-670 -1352h-229zM944 369l219 543h379v-543h72v-211h-72v-156h-238v156h-342zM1182 355h129l8 237q2 41 3 80t3 72h-10q-10 -33 -21.5 -66t-25.5 -71z" />
<glyph unicode="&#xbd;" horiz-adv-x="1667" d="M35 1286l329 66h82v-910h-247v654l-150 -29zM317 0l670 1352h229l-670 -1352h-229zM1055 119q0 104 20.5 171t79.5 122l181 168q16 16 23 32.5t7 39.5q0 14 -2 25t-6 22q-10 2 -19.5 2h-19.5q-53 0 -113.5 -9.5t-107.5 -21.5l-12 223q51 16 120.5 26.5t137.5 10.5 q133 0 202.5 -59.5t69.5 -188.5q0 -86 -24.5 -145t-77.5 -107l-166 -145q-16 -16 -19.5 -28.5t-3.5 -18.5v-19h269v-217h-533q0 2 -3 36t-3 81z" />
<glyph unicode="&#xbe;" horiz-adv-x="1744" d="M53 453l12 219q25 -6 61 -11.5t73 -5.5q88 0 115.5 17.5t27.5 68.5q0 23 -6 58h-29q-35 0 -79 -2t-97 -6v202q37 4 71.5 5t65.5 3q49 4 65.5 23.5t16.5 54.5q0 29 -10 60q-6 2 -13.5 2h-13.5q-59 0 -119.5 -7.5t-107.5 -17.5l-14 219q47 14 111.5 24.5t146.5 10.5 q135 0 198.5 -59t63.5 -176q0 -68 -23.5 -120t-64.5 -89q53 -33 70.5 -90.5t17.5 -116.5q0 -141 -79 -214t-259 -73q-55 0 -112.5 5t-88.5 16zM406 0l670 1352h229l-670 -1352h-229zM1030 369l219 543h379v-543h72v-211h-72v-156h-238v156h-342zM1268 355h129l8 237 q2 41 3 80t3 72h-10q-10 -33 -21.5 -66t-25.5 -71z" />
<glyph unicode="&#xbf;" horiz-adv-x="757" d="M33 41q0 76 22.5 136.5t58.5 110.5t79 94t86 87v184h311v-297l-135 -114q-39 -35 -55.5 -68t-16.5 -80q0 -14 2 -34.5t6 -28.5q8 -2 27.5 -3t30.5 -1q66 0 127 12t120 29l21 -312q-72 -20 -159 -33.5t-191 -13.5q-186 0 -260 86t-74 246zM268 774v311h330v-311h-330z" />
<glyph unicode="&#xc0;" horiz-adv-x="1069" d="M-4 0l319 1352h443l311 -1352h-360l-39 221h-289l-39 -221h-346zM297 1518l67 211l437 -175l-50 -151zM430 498h193l-62 344q-14 74 -20 132t-11 101h-6q-4 -43 -12 -101.5t-20 -133.5z" />
<glyph unicode="&#xc1;" horiz-adv-x="1069" d="M-4 0l319 1352h443l311 -1352h-360l-39 221h-289l-39 -221h-346zM305 1554l434 175l68 -211l-453 -115zM430 498h193l-62 344q-14 74 -20 132t-11 101h-6q-4 -43 -12 -101.5t-20 -133.5z" />
<glyph unicode="&#xc2;" horiz-adv-x="1069" d="M-4 0l319 1352h443l311 -1352h-360l-39 221h-289l-39 -221h-346zM229 1532l307 180l310 -180l-52 -127l-258 98l-256 -98zM430 498h193l-62 344q-14 74 -20 132t-11 101h-6q-4 -43 -12 -101.5t-20 -133.5z" />
<glyph unicode="&#xc3;" horiz-adv-x="1069" d="M-4 0l319 1352h443l311 -1352h-360l-39 221h-289l-39 -221h-346zM222 1616q14 14 36.5 28.5t47 26.5t48 20.5t40.5 8.5q41 0 76.5 -14.5t70.5 -32t70 -31.5t75 -14q29 12 65 28.5t58 26.5l41 -162q-14 -16 -36.5 -30.5t-47 -26.5t-47 -19.5t-39.5 -7.5q-43 0 -78.5 14.5 t-70.5 31t-71 30.5t-77 14q-29 -10 -63.5 -25.5t-56.5 -25.5zM430 498h193l-62 344q-14 74 -20 132t-11 101h-6q-4 -43 -12 -101.5t-20 -133.5z" />
<glyph unicode="&#xc4;" horiz-adv-x="1069" d="M-4 0l319 1352h443l311 -1352h-360l-39 221h-289l-39 -221h-346zM215 1425v201l280 16v-202zM430 498h193l-62 344q-14 74 -20 132t-11 101h-6q-4 -43 -12 -101.5t-20 -133.5zM579 1425v201l281 16v-202z" />
<glyph unicode="&#xc5;" horiz-adv-x="1069" d="M-4 0l315 1335q-20 39 -20 95q0 88 62.5 140t181.5 52q125 0 186 -51t61 -141q0 -51 -22 -93l309 -1337h-360l-39 221h-289l-39 -221h-346zM430 498h193l-62 344q-14 74 -20 132t-11 101h-6q-4 -43 -12 -101.5t-20 -133.5zM444 1430q0 -27 6.5 -43.5t8.5 -16.5 q10 -4 20 -6q18 -6 56 -6q53 0 73.5 19.5t20.5 52.5q0 25 -7.5 43t-7.5 20q-8 2 -20 6q-10 2 -25.5 4t-31.5 2q-51 0 -72 -22.5t-21 -52.5z" />
<glyph unicode="&#xc6;" horiz-adv-x="1282" d="M-4 0l319 1352h893l-10 -314h-360l41 -209h307v-294h-250l43 -218h225v-317h-495l-39 221h-289l-39 -221h-346zM430 498h193l-60 344q-10 61 -19 126.5t-14 106.5h-6q-4 -41 -13 -107.5t-19 -131.5z" />
<glyph unicode="&#xc7;" horiz-adv-x="851" d="M70 633q0 160 16 295t67.5 235.5t146.5 156.5t251 56q96 0 160.5 -15t93.5 -26l-21 -311l-17 4t-44 10t-60.5 11.5t-64.5 5.5q-59 0 -94 -14.5t-52.5 -59.5t-22.5 -128t-5 -220q0 -139 6 -213t16 -117q14 -2 30 -2h32q76 0 151.5 10.5t128.5 26.5v-313q-29 -14 -93 -26.5 t-130 -18.5q45 -29 77 -69t32 -112q0 -90 -80 -130t-252 -40l-25 125q86 0 120 7.5t34 33.5q0 25 -27.5 44.5t-97.5 35.5l-6 33l59 74q-117 12 -183 59t-99 129t-40 197.5t-7 265.5z" />
<glyph unicode="&#xc8;" horiz-adv-x="866" d="M92 0v1352h699l-11 -314h-334v-207h322v-296h-322v-218h342v-317h-696zM203 1518l67 211l437 -175l-50 -151z" />
<glyph unicode="&#xc9;" horiz-adv-x="866" d="M92 0v1352h699l-11 -314h-334v-207h322v-296h-322v-218h342v-317h-696zM211 1554l434 175l68 -211l-453 -115z" />
<glyph unicode="&#xca;" horiz-adv-x="866" d="M92 0v1352h699l-11 -314h-334v-207h322v-296h-322v-218h342v-317h-696zM135 1532l307 180l310 -180l-52 -127l-258 98l-256 -98z" />
<glyph unicode="&#xcb;" horiz-adv-x="866" d="M92 0v1352h699l-11 -314h-334v-207h322v-296h-322v-218h342v-317h-696zM121 1425v201l280 16v-202zM485 1425v201l281 16v-202z" />
<glyph unicode="&#xcc;" horiz-adv-x="538" d="M31 1518l67 211l437 -175l-50 -151zM92 0v1352h354v-1352h-354z" />
<glyph unicode="&#xcd;" horiz-adv-x="538" d="M39 1554l434 175l68 -211l-453 -115zM92 0v1352h354v-1352h-354z" />
<glyph unicode="&#xce;" horiz-adv-x="538" d="M-37 1532l307 180l310 -180l-52 -127l-258 98l-256 -98zM92 0v1352h354v-1352h-354z" />
<glyph unicode="&#xcf;" horiz-adv-x="538" d="M-51 1425v201l280 16v-202zM92 0v1352h354v-1352h-354zM313 1425v201l281 16v-202z" />
<glyph unicode="&#xd0;" horiz-adv-x="1099" d="M29 600v176h88v576q25 2 74 4t114.5 4t140 3t148.5 1q137 0 222 -34t133 -110.5t65.5 -201.5t17.5 -305q0 -166 -17.5 -298t-69.5 -224.5t-145 -141.5t-247 -49h-436v600h-88zM471 293h78q41 0 65.5 23.5t38 72.5t17.5 126.5t4 186.5q0 115 -8.5 207t-26.5 158 q-18 2 -36.5 3t-37.5 1q-29 0 -52.5 -2t-41.5 -4v-289h127v-176h-127v-307z" />
<glyph unicode="&#xd1;" horiz-adv-x="1157" d="M92 0v1352h354l199 -473q27 -61 49.5 -120t38.5 -106h6q-2 49 -4 112.5t-2 139.5v447h332v-1352h-352l-201 453q-27 59 -49.5 118.5t-38.5 106.5h-6q2 -49 4 -113.5t2 -140.5v-424h-332zM256 1616q14 14 36.5 28.5t47 26.5t48 20.5t40.5 8.5q41 0 76.5 -14.5t70.5 -32 t70 -31.5t75 -14q29 12 65 28.5t58 26.5l41 -162q-14 -16 -36.5 -30.5t-47 -26.5t-47 -19.5t-39.5 -7.5q-43 0 -78.5 14.5t-70.5 31t-71 30.5t-77 14q-29 -10 -63.5 -25.5t-56.5 -25.5z" />
<glyph unicode="&#xd2;" d="M66 653q0 152 19 284t74.5 229.5t154 153.5t253.5 56q150 0 239 -45t135 -132t59.5 -213t13.5 -288q0 -152 -19.5 -283.5t-75 -229t-152.5 -154t-253 -56.5q-150 0 -239 45.5t-135 132.5t-60 213t-14 287zM316 1518l67 211l437 -175l-50 -151zM420 655q0 -147 7 -232 t19 -134q27 -6 66 -6q51 0 81 23.5t45 73.5t19.5 128.5t4.5 187.5q0 150 -8.5 235t-18.5 132q-25 8 -64 8q-51 0 -81.5 -24.5t-46 -74.5t-19.5 -129t-4 -188z" />
<glyph unicode="&#xd3;" d="M66 653q0 152 19 284t74.5 229.5t154 153.5t253.5 56q150 0 239 -45t135 -132t59.5 -213t13.5 -288q0 -152 -19.5 -283.5t-75 -229t-152.5 -154t-253 -56.5q-150 0 -239 45.5t-135 132.5t-60 213t-14 287zM324 1554l434 175l68 -211l-453 -115zM420 655q0 -147 7 -232 t19 -134q27 -6 66 -6q51 0 81 23.5t45 73.5t19.5 128.5t4.5 187.5q0 150 -8.5 235t-18.5 132q-25 8 -64 8q-51 0 -81.5 -24.5t-46 -74.5t-19.5 -129t-4 -188z" />
<glyph unicode="&#xd4;" d="M66 653q0 152 19 284t74.5 229.5t154 153.5t253.5 56q150 0 239 -45t135 -132t59.5 -213t13.5 -288q0 -152 -19.5 -283.5t-75 -229t-152.5 -154t-253 -56.5q-150 0 -239 45.5t-135 132.5t-60 213t-14 287zM248 1532l307 180l310 -180l-52 -127l-258 98l-256 -98zM420 655 q0 -147 7 -232t19 -134q27 -6 66 -6q51 0 81 23.5t45 73.5t19.5 128.5t4.5 187.5q0 150 -8.5 235t-18.5 132q-25 8 -64 8q-51 0 -81.5 -24.5t-46 -74.5t-19.5 -129t-4 -188z" />
<glyph unicode="&#xd5;" d="M66 653q0 152 19 284t74.5 229.5t154 153.5t253.5 56q150 0 239 -45t135 -132t59.5 -213t13.5 -288q0 -152 -19.5 -283.5t-75 -229t-152.5 -154t-253 -56.5q-150 0 -239 45.5t-135 132.5t-60 213t-14 287zM240 1616q14 14 36.5 28.5t47 26.5t48 20.5t40.5 8.5 q41 0 76.5 -14.5t70.5 -32t70 -31.5t75 -14q29 12 65 28.5t58 26.5l41 -162q-14 -16 -36.5 -30.5t-47 -26.5t-47 -19.5t-39.5 -7.5q-43 0 -78.5 14.5t-70.5 31t-71 30.5t-77 14q-29 -10 -63.5 -25.5t-56.5 -25.5zM420 655q0 -147 7 -232t19 -134q27 -6 66 -6q51 0 81 23.5 t45 73.5t19.5 128.5t4.5 187.5q0 150 -8.5 235t-18.5 132q-25 8 -64 8q-51 0 -81.5 -24.5t-46 -74.5t-19.5 -129t-4 -188z" />
<glyph unicode="&#xd6;" d="M66 653q0 152 19 284t74.5 229.5t154 153.5t253.5 56q150 0 239 -45t135 -132t59.5 -213t13.5 -288q0 -152 -19.5 -283.5t-75 -229t-152.5 -154t-253 -56.5q-150 0 -239 45.5t-135 132.5t-60 213t-14 287zM234 1425v201l280 16v-202zM420 655q0 -147 7 -232t19 -134 q27 -6 66 -6q51 0 81 23.5t45 73.5t19.5 128.5t4.5 187.5q0 150 -8.5 235t-18.5 132q-25 8 -64 8q-51 0 -81.5 -24.5t-46 -74.5t-19.5 -129t-4 -188zM598 1425v201l281 16v-202z" />
<glyph unicode="&#xd7;" horiz-adv-x="901" d="M29 410l227 229l-227 229l192 191l228 -230l229 232l192 -193l-229 -229l229 -231l-192 -191l-229 229l-228 -227z" />
<glyph unicode="&#xd8;" d="M49 -133l117 246q-66 86 -83 222t-17 318q0 152 19 284t74.5 229.5t154 153.5t253.5 56q115 0 189 -26l65 133h209l-117 -244q66 -86 83.5 -222.5t17.5 -318.5q0 -152 -19.5 -283.5t-75 -229t-152.5 -154t-253 -56.5q-113 0 -188 25l-66 -133h-211zM389 653q0 -47 1 -86 t1 -80h6q16 55 34 106.5t46 113.5l172 383q-35 6 -69 6q-66 0 -103 -26t-57.5 -79t-25.5 -137t-5 -201zM432 264q31 -6 70 -6q63 0 101 25.5t57.5 79t24.5 137.5t5 200v164h-6q-16 -53 -34.5 -104t-47.5 -113z" />
<glyph unicode="&#xd9;" horiz-adv-x="1089" d="M86 494v858h352v-838q0 -68 3 -124t12 -101q35 -8 75 -8q35 0 58.5 10t38 36.5t20.5 71.5t6 115v838h353v-856q0 -164 -33 -265.5t-96.5 -159t-154.5 -78t-208 -20.5q-127 0 -209 32t-130 96.5t-67.5 161.5t-19.5 231zM305 1518l67 211l437 -175l-50 -151z" />
<glyph unicode="&#xda;" horiz-adv-x="1089" d="M86 494v858h352v-838q0 -68 3 -124t12 -101q35 -8 75 -8q35 0 58.5 10t38 36.5t20.5 71.5t6 115v838h353v-856q0 -164 -33 -265.5t-96.5 -159t-154.5 -78t-208 -20.5q-127 0 -209 32t-130 96.5t-67.5 161.5t-19.5 231zM314 1554l434 175l68 -211l-453 -115z" />
<glyph unicode="&#xdb;" horiz-adv-x="1089" d="M86 494v858h352v-838q0 -68 3 -124t12 -101q35 -8 75 -8q35 0 58.5 10t38 36.5t20.5 71.5t6 115v838h353v-856q0 -164 -33 -265.5t-96.5 -159t-154.5 -78t-208 -20.5q-127 0 -209 32t-130 96.5t-67.5 161.5t-19.5 231zM237 1532l307 180l310 -180l-52 -127l-258 98 l-256 -98z" />
<glyph unicode="&#xdc;" horiz-adv-x="1089" d="M86 494v858h352v-838q0 -68 3 -124t12 -101q35 -8 75 -8q35 0 58.5 10t38 36.5t20.5 71.5t6 115v838h353v-856q0 -164 -33 -265.5t-96.5 -159t-154.5 -78t-208 -20.5q-127 0 -209 32t-130 96.5t-67.5 161.5t-19.5 231zM223 1425v201l280 16v-202zM587 1425v201l281 16 v-202z" />
<glyph unicode="&#xdd;" horiz-adv-x="1015" d="M6 1352h367l102 -430q14 -59 21.5 -107.5t11.5 -85.5h6q4 41 12.5 87t24.5 108l113 428h364l-348 -910v-442h-354v442zM281 1554l434 175l68 -211l-453 -115z" />
<glyph unicode="&#xde;" horiz-adv-x="1042" d="M92 0v1352h354v-170q29 2 61 2h68q125 0 206 -31t128 -88t65.5 -140.5t18.5 -189.5q0 -115 -18.5 -216t-63.5 -178t-122.5 -122t-196.5 -45h-146v-174h-354zM446 473h91q55 0 81.5 49t26.5 166q0 72 -8 121t-16 76q-14 2 -31 4t-43 2q-23 0 -52.5 -1t-48.5 -3v-414z" />
<glyph unicode="&#xdf;" horiz-adv-x="1126" d="M88 0v1026q0 111 27.5 187.5t86 126t150.5 72t223 22.5q68 0 146 -12.5t143.5 -43t108.5 -85t43 -138.5q0 -41 -9.5 -90t-31.5 -109l-86 -233l133 -197q31 -45 52.5 -99t21.5 -120q0 -164 -83 -244.5t-263 -80.5q-66 0 -117 7t-101 19l19 307q33 -10 82 -20t110 -10h5 q2 6 3 12t1 16q0 16 -9.5 35t-19.5 35l-127 174q-33 47 -40 77t-7 68q0 18 11 58.5t29.5 94.5t41 118.5t45.5 134.5q-61 16 -123 16q-53 0 -82 -23.5t-29 -96.5v-1004h-354z" />
<glyph unicode="&#xe0;" horiz-adv-x="968" d="M45 315q0 182 100.5 262t276.5 80q63 0 113 -6v29q0 35 -4.5 65.5t-8.5 53.5q-37 6 -86 6q-82 0 -159.5 -13.5t-145.5 -35.5l-22 286q29 12 76.5 24.5t107 22t126 15.5t132.5 6q182 0 259 -77t77 -257v-776h-328v96q-43 -41 -109.5 -77.5t-156.5 -36.5q-131 0 -189.5 85 t-58.5 248zM223 1288l78 234l479 -197l-55 -168zM367 338q0 -70 12 -100q10 -4 23.5 -4.5t25.5 -0.5q57 0 107 27v201q-16 2 -33 3t-39 1q-96 0 -96 -127z" />
<glyph unicode="&#xe1;" horiz-adv-x="968" d="M45 315q0 182 100.5 262t276.5 80q63 0 113 -6v29q0 35 -4.5 65.5t-8.5 53.5q-37 6 -86 6q-82 0 -159.5 -13.5t-145.5 -35.5l-22 286q29 12 76.5 24.5t107 22t126 15.5t132.5 6q182 0 259 -77t77 -257v-776h-328v96q-43 -41 -109.5 -77.5t-156.5 -36.5q-131 0 -189.5 85 t-58.5 248zM221 1325l481 197l78 -234l-502 -131zM367 338q0 -70 12 -100q10 -4 23.5 -4.5t25.5 -0.5q57 0 107 27v201q-16 2 -33 3t-39 1q-96 0 -96 -127z" />
<glyph unicode="&#xe2;" horiz-adv-x="968" d="M45 315q0 182 100.5 262t276.5 80q63 0 113 -6v29q0 35 -4.5 65.5t-8.5 53.5q-37 6 -86 6q-82 0 -159.5 -13.5t-145.5 -35.5l-22 286q29 12 76.5 24.5t107 22t126 15.5t132.5 6q182 0 259 -77t77 -257v-776h-328v96q-43 -41 -109.5 -77.5t-156.5 -36.5q-131 0 -189.5 85 t-58.5 248zM145 1294l342 205l344 -205l-57 -137l-287 111l-284 -111zM367 338q0 -70 12 -100q10 -4 23.5 -4.5t25.5 -0.5q57 0 107 27v201q-16 2 -33 3t-39 1q-96 0 -96 -127z" />
<glyph unicode="&#xe3;" horiz-adv-x="968" d="M45 315q0 182 100.5 262t276.5 80q63 0 113 -6v29q0 35 -4.5 65.5t-8.5 53.5q-37 6 -86 6q-82 0 -159.5 -13.5t-145.5 -35.5l-22 286q29 12 76.5 24.5t107 22t126 15.5t132.5 6q182 0 259 -77t77 -257v-776h-328v96q-43 -41 -109.5 -77.5t-156.5 -36.5q-131 0 -189.5 85 t-58.5 248zM137 1399q16 14 41 30.5t51.5 31t52 22.5t44.5 8q47 0 86.5 -18.5t78.5 -40t78 -39t84 -17.5l137 62l48 -174q-16 -16 -41 -33t-51.5 -31t-52 -22.5t-44.5 -8.5q-47 0 -88 17.5t-80 39t-78 40t-84 18.5q-39 -16 -75.5 -31.5t-59.5 -25.5zM367 338q0 -70 12 -100 q10 -4 23.5 -4.5t25.5 -0.5q57 0 107 27v201q-16 2 -33 3t-39 1q-96 0 -96 -127z" />
<glyph unicode="&#xe4;" horiz-adv-x="968" d="M45 315q0 182 100.5 262t276.5 80q63 0 113 -6v29q0 35 -4.5 65.5t-8.5 53.5q-37 6 -86 6q-82 0 -159.5 -13.5t-145.5 -35.5l-22 286q29 12 76.5 24.5t107 22t126 15.5t132.5 6q182 0 259 -77t77 -257v-776h-328v96q-43 -41 -109.5 -77.5t-156.5 -36.5q-131 0 -189.5 85 t-58.5 248zM131 1198v223l311 19v-226zM367 338q0 -70 12 -100q10 -4 23.5 -4.5t25.5 -0.5q57 0 107 27v201q-16 2 -33 3t-39 1q-96 0 -96 -127zM534 1198v223l312 19v-226z" />
<glyph unicode="&#xe5;" horiz-adv-x="968" d="M45 315q0 182 100.5 262t276.5 80q63 0 113 -6v29q0 35 -4.5 65.5t-8.5 53.5q-37 6 -86 6q-82 0 -159.5 -13.5t-145.5 -35.5l-22 286q29 12 76.5 24.5t107 22t126 15.5t132.5 6q182 0 259 -77t77 -257v-776h-328v96q-43 -41 -109.5 -77.5t-156.5 -36.5q-131 0 -189.5 85 t-58.5 248zM215 1376q0 98 69.5 157.5t202.5 59.5q139 0 207 -59.5t68 -157.5t-70 -155.5t-205 -57.5q-137 0 -204.5 57.5t-67.5 155.5zM367 338q0 -70 12 -100q10 -4 23.5 -4.5t25.5 -0.5q57 0 107 27v201q-16 2 -33 3t-39 1q-96 0 -96 -127zM385 1376q0 -29 6 -47l8 -20 q2 0 24.5 -5.5t63.5 -5.5q57 0 81 21.5t24 56.5q0 29 -8.5 51.5t-8.5 24.5q-2 0 -24.5 5t-61.5 5q-55 0 -79.5 -25.5t-24.5 -60.5z" />
<glyph unicode="&#xe6;" horiz-adv-x="1431" d="M45 319q0 182 100.5 262.5t276.5 80.5q31 0 58.5 -1.5t51.5 -3.5v23q0 68 -10 119q-37 6 -86 6q-82 0 -159.5 -13.5t-145.5 -35.5l-22 286q59 25 174.5 46.5t246.5 21.5q80 0 130.5 -22.5t80.5 -63.5q55 45 124 65.5t147 20.5q113 0 183.5 -34t110.5 -93t54 -140t14 -175 q0 -131 -20 -252l-473 -29q2 -35 5 -66.5t9 -52.5q16 -2 33.5 -3t48.5 -1q47 0 99 5t99.5 13.5t85 16.5t56.5 12l20 -276q-16 -8 -54 -18.5t-90 -19.5t-116.5 -15.5t-138.5 -6.5q-117 0 -191.5 32t-119.5 85q-47 -37 -126 -71.5t-177 -34.5q-145 0 -212 84.5t-67 248.5z M367 342q0 -70 12 -100q10 -4 23.5 -4h25.5q37 0 66.5 10t56.5 26q-18 88 -19 193q-16 2 -34.5 2h-34.5q-96 0 -96 -127zM879 586l176 12q2 25 2 41v33q0 49 -3 93t-12 73q-24 8 -47 8q-31 0 -52 -6t-35.5 -33t-21.5 -78t-7 -143z" />
<glyph unicode="&#xe7;" horiz-adv-x="802" d="M61 532q0 297 110 437.5t347 140.5q61 0 120.5 -9t113.5 -30l-25 -293q-45 14 -96 19.5t-80 5.5t-55.5 -7.5t-47 -34t-31.5 -78.5t-11 -140q0 -94 4 -155.5t12 -104.5h2q39 0 83 4t84 10t74.5 13t59.5 16l20 -295q-31 -14 -96 -29.5t-149 -21.5q43 -29 74.5 -69 t31.5 -112q0 -90 -80 -130t-252 -40l-24 125q86 0 119.5 7.5t33.5 33.5q0 25 -27.5 44.5t-96.5 35.5l-7 33l62 76q-90 12 -143.5 55t-82 111.5t-38 165t-9.5 216.5z" />
<glyph unicode="&#xe8;" horiz-adv-x="960" d="M61 545q0 152 29 259t87.5 175t144.5 99.5t200 31.5q125 0 201 -35t116 -95t52 -140t12 -172q0 -127 -18 -252l-475 -29q2 -35 5 -66.5t9 -52.5q16 -2 33.5 -3t48.5 -1q47 0 99 5t100.5 13.5t86 16.5t56.5 12l20 -274q-18 -10 -55 -20.5t-90 -19.5t-117.5 -15.5 t-138.5 -6.5q-145 0 -226 48.5t-121 128t-49.5 182t-9.5 211.5zM242 1288l78 234l479 -197l-55 -168zM408 586l178 12q2 25 2 41v33q0 49 -4 93t-13 73q-27 8 -45 8q-31 0 -53 -6t-36.5 -33t-21.5 -78t-7 -143z" />
<glyph unicode="&#xe9;" horiz-adv-x="960" d="M61 545q0 152 29 259t87.5 175t144.5 99.5t200 31.5q125 0 201 -35t116 -95t52 -140t12 -172q0 -127 -18 -252l-475 -29q2 -35 5 -66.5t9 -52.5q16 -2 33.5 -3t48.5 -1q47 0 99 5t100.5 13.5t86 16.5t56.5 12l20 -274q-18 -10 -55 -20.5t-90 -19.5t-117.5 -15.5 t-138.5 -6.5q-145 0 -226 48.5t-121 128t-49.5 182t-9.5 211.5zM240 1325l481 197l78 -234l-502 -131zM408 586l178 12q2 25 2 41v33q0 49 -4 93t-13 73q-27 8 -45 8q-31 0 -53 -6t-36.5 -33t-21.5 -78t-7 -143z" />
<glyph unicode="&#xea;" horiz-adv-x="960" d="M61 545q0 152 29 259t87.5 175t144.5 99.5t200 31.5q125 0 201 -35t116 -95t52 -140t12 -172q0 -127 -18 -252l-475 -29q2 -35 5 -66.5t9 -52.5q16 -2 33.5 -3t48.5 -1q47 0 99 5t100.5 13.5t86 16.5t56.5 12l20 -274q-18 -10 -55 -20.5t-90 -19.5t-117.5 -15.5 t-138.5 -6.5q-145 0 -226 48.5t-121 128t-49.5 182t-9.5 211.5zM164 1294l342 205l344 -205l-57 -137l-287 111l-284 -111zM408 586l178 12q2 25 2 41v33q0 49 -4 93t-13 73q-27 8 -45 8q-31 0 -53 -6t-36.5 -33t-21.5 -78t-7 -143z" />
<glyph unicode="&#xeb;" horiz-adv-x="960" d="M61 545q0 152 29 259t87.5 175t144.5 99.5t200 31.5q125 0 201 -35t116 -95t52 -140t12 -172q0 -127 -18 -252l-475 -29q2 -35 5 -66.5t9 -52.5q16 -2 33.5 -3t48.5 -1q47 0 99 5t100.5 13.5t86 16.5t56.5 12l20 -274q-18 -10 -55 -20.5t-90 -19.5t-117.5 -15.5 t-138.5 -6.5q-145 0 -226 48.5t-121 128t-49.5 182t-9.5 211.5zM150 1198v223l311 19v-226zM408 586l178 12q2 25 2 41v33q0 49 -4 93t-13 73q-27 8 -45 8q-31 0 -53 -6t-36.5 -33t-21.5 -78t-7 -143zM553 1198v223l312 19v-226z" />
<glyph unicode="&#xec;" horiz-adv-x="530" d="M2 1288l78 234l479 -197l-55 -168zM88 0v1079l354 21v-1100h-354z" />
<glyph unicode="&#xed;" horiz-adv-x="530" d="M0 1325l481 197l78 -234l-502 -131zM88 0v1079l354 21v-1100h-354z" />
<glyph unicode="&#xee;" horiz-adv-x="530" d="M-76 1294l342 205l344 -205l-57 -137l-287 111l-284 -111zM88 0v1079l354 21v-1100h-354z" />
<glyph unicode="&#xef;" horiz-adv-x="530" d="M-90 1198v223l311 19v-226zM88 0v1079l354 21v-1100h-354zM313 1198v223l312 19v-226z" />
<glyph unicode="&#xf0;" horiz-adv-x="1042" d="M57 479q0 139 33 233.5t89.5 151t131 81t158.5 24.5q37 0 59.5 -6.5t38.5 -14.5l4 4q-20 51 -54 95.5t-79 72.5l-170 -137l-78 102l115 93q-47 16 -99 27.5t-112 19.5l111 211q186 -27 319 -82l158 129l78 -103l-111 -90q98 -61 161.5 -142t101.5 -182.5t53.5 -222 t15.5 -258.5q0 -135 -38 -232t-103.5 -158.5t-153.5 -91.5t-188 -30q-147 0 -235.5 46.5t-133.5 119t-58.5 161.5t-13.5 179zM412 492q0 -94 3 -143.5t9 -84.5q14 -6 29.5 -10t33.5 -4q27 0 52.5 6t45 28.5t31 66.5t11.5 122q0 53 -3 111.5t-8 117.5q-35 6 -61 7 q-29 0 -54.5 -6.5t-46 -29t-31.5 -65.5t-11 -116z" />
<glyph unicode="&#xf1;" horiz-adv-x="1087" d="M88 0v1079l332 21v-121q29 20 66.5 42.5t81.5 42t92.5 33t97.5 13.5q121 0 183.5 -54.5t62.5 -181.5v-874h-355v678q0 43 -2 66.5t-6 46.5q-16 4 -26.5 4h-22.5q-45 0 -83 -12.5t-69 -32.5v-750h-352zM197 1399q16 14 41 30.5t51.5 31t52 22.5t44.5 8q47 0 86.5 -18.5 t78.5 -40t78 -39t84 -17.5l137 62l48 -174q-16 -16 -41 -33t-51.5 -31t-52 -22.5t-44.5 -8.5q-47 0 -88 17.5t-80 39t-78 40t-84 18.5q-39 -16 -75.5 -31.5t-59.5 -25.5z" />
<glyph unicode="&#xf2;" horiz-adv-x="1044" d="M59 543q0 164 38 272.5t103.5 174t153.5 93t191 27.5q147 0 234 -44t133 -121t59.5 -179t13.5 -219q0 -164 -38 -273.5t-103.5 -175t-154.5 -94.5t-189 -29q-147 0 -235.5 45.5t-133.5 122t-58.5 180t-13.5 220.5zM277 1288l78 234l479 -197l-55 -168zM414 553 q0 -109 4 -175.5t14 -113.5q12 -6 26.5 -9t30.5 -3q27 0 52.5 6t45 33.5t32 84.5t12.5 159q0 109 -5 175t-16 113q-27 12 -57 13q-20 0 -48 -7.5t-48.5 -34t-31.5 -84t-11 -157.5z" />
<glyph unicode="&#xf3;" horiz-adv-x="1044" d="M59 543q0 164 38 272.5t103.5 174t153.5 93t191 27.5q147 0 234 -44t133 -121t59.5 -179t13.5 -219q0 -164 -38 -273.5t-103.5 -175t-154.5 -94.5t-189 -29q-147 0 -235.5 45.5t-133.5 122t-58.5 180t-13.5 220.5zM275 1325l481 197l78 -234l-502 -131zM414 553 q0 -109 4 -175.5t14 -113.5q12 -6 26.5 -9t30.5 -3q27 0 52.5 6t45 33.5t32 84.5t12.5 159q0 109 -5 175t-16 113q-27 12 -57 13q-20 0 -48 -7.5t-48.5 -34t-31.5 -84t-11 -157.5z" />
<glyph unicode="&#xf4;" horiz-adv-x="1044" d="M59 543q0 164 38 272.5t103.5 174t153.5 93t191 27.5q147 0 234 -44t133 -121t59.5 -179t13.5 -219q0 -164 -38 -273.5t-103.5 -175t-154.5 -94.5t-189 -29q-147 0 -235.5 45.5t-133.5 122t-58.5 180t-13.5 220.5zM198 1294l342 205l344 -205l-57 -137l-287 111 l-284 -111zM414 553q0 -109 4 -175.5t14 -113.5q12 -6 26.5 -9t30.5 -3q27 0 52.5 6t45 33.5t32 84.5t12.5 159q0 109 -5 175t-16 113q-27 12 -57 13q-20 0 -48 -7.5t-48.5 -34t-31.5 -84t-11 -157.5z" />
<glyph unicode="&#xf5;" horiz-adv-x="1044" d="M59 543q0 164 38 272.5t103.5 174t153.5 93t191 27.5q147 0 234 -44t133 -121t59.5 -179t13.5 -219q0 -164 -38 -273.5t-103.5 -175t-154.5 -94.5t-189 -29q-147 0 -235.5 45.5t-133.5 122t-58.5 180t-13.5 220.5zM190 1399q16 14 41 30.5t51.5 31t52 22.5t44.5 8 q47 0 86.5 -18.5t78.5 -40t78 -39t84 -17.5l137 62l48 -174q-16 -16 -41 -33t-51.5 -31t-52 -22.5t-44.5 -8.5q-47 0 -88 17.5t-80 39t-78 40t-84 18.5q-39 -16 -75.5 -31.5t-59.5 -25.5zM414 553q0 -109 4 -175.5t14 -113.5q12 -6 26.5 -9t30.5 -3q27 0 52.5 6t45 33.5 t32 84.5t12.5 159q0 109 -5 175t-16 113q-27 12 -57 13q-20 0 -48 -7.5t-48.5 -34t-31.5 -84t-11 -157.5z" />
<glyph unicode="&#xf6;" horiz-adv-x="1044" d="M59 543q0 164 38 272.5t103.5 174t153.5 93t191 27.5q147 0 234 -44t133 -121t59.5 -179t13.5 -219q0 -164 -38 -273.5t-103.5 -175t-154.5 -94.5t-189 -29q-147 0 -235.5 45.5t-133.5 122t-58.5 180t-13.5 220.5zM184 1198v223l311 19v-226zM414 553q0 -109 4 -175.5 t14 -113.5q12 -6 26.5 -9t30.5 -3q27 0 52.5 6t45 33.5t32 84.5t12.5 159q0 109 -5 175t-16 113q-27 12 -57 13q-20 0 -48 -7.5t-48.5 -34t-31.5 -84t-11 -157.5zM587 1198v223l312 19v-226z" />
<glyph unicode="&#xf7;" horiz-adv-x="901" d="M66 506v272h770v-272h-770zM315 156v237h269v-237h-269zM315 885v237h269v-237h-269z" />
<glyph unicode="&#xf8;" horiz-adv-x="1044" d="M59 543q0 164 38 272.5t103.5 174t153.5 93t191 27.5q47 0 86 -5t74 -13l63 125h201l-107 -209q39 -37 63.5 -87.5t38 -109.5t17.5 -127t4 -137q0 -164 -38 -273.5t-103.5 -175t-154.5 -94.5t-189 -29q-45 0 -82 4.5t-70 12.5l-59 -123h-211l104 209q-41 39 -64.5 90 t-36.5 110.5t-17.5 126t-4.5 138.5zM385 476q0 -36 2 -70l4 -3q6 23 18.5 50.5t30.5 66.5l162 332q-10 2 -20.5 3t-20.5 1q-39 0 -70.5 -7t-55 -37t-37 -91.5t-13.5 -167.5v-77zM442 238q10 -2 20.5 -3.5t20.5 -1.5q37 0 70 7.5t56.5 36t36.5 89t13 169.5q0 39 -1 75.5 t-1 71.5l-4 2q-14 -47 -49 -119z" />
<glyph unicode="&#xf9;" d="M82 244v835l352 21v-682q0 -29 3 -58.5t12 -54.5q8 -2 36 -2q80 0 154 45v731l352 21v-1100h-329v121q-20 -18 -55.5 -42t-79.5 -45.5t-98 -36.5t-114 -15q-111 0 -172 65.5t-61 196.5zM281 1288l78 234l479 -197l-55 -168z" />
<glyph unicode="&#xfa;" d="M82 244v835l352 21v-682q0 -29 3 -58.5t12 -54.5q8 -2 36 -2q80 0 154 45v731l352 21v-1100h-329v121q-20 -18 -55.5 -42t-79.5 -45.5t-98 -36.5t-114 -15q-111 0 -172 65.5t-61 196.5zM279 1325l481 197l78 -234l-502 -131z" />
<glyph unicode="&#xfb;" d="M82 244v835l352 21v-682q0 -29 3 -58.5t12 -54.5q8 -2 36 -2q80 0 154 45v731l352 21v-1100h-329v121q-20 -18 -55.5 -42t-79.5 -45.5t-98 -36.5t-114 -15q-111 0 -172 65.5t-61 196.5zM202 1294l342 205l344 -205l-57 -137l-287 111l-284 -111z" />
<glyph unicode="&#xfc;" d="M82 244v835l352 21v-682q0 -29 3 -58.5t12 -54.5q8 -2 36 -2q80 0 154 45v731l352 21v-1100h-329v121q-20 -18 -55.5 -42t-79.5 -45.5t-98 -36.5t-114 -15q-111 0 -172 65.5t-61 196.5zM188 1198v223l311 19v-226zM591 1198v223l312 19v-226z" />
<glyph unicode="&#xfd;" horiz-adv-x="1042" d="M10 1085h377l102 -563q10 -49 16.5 -97t10.5 -93h6q4 45 10.5 90t16.5 100l96 563h385l-242 -1087q-14 -68 -40.5 -126t-70.5 -102t-110.5 -70t-160.5 -26q-133 0 -205 17.5t-86 23.5v299q35 -10 93 -21t136 -11q55 0 85 17t40 69l8 53h-233zM250 1325l481 197l78 -234 l-502 -131z" />
<glyph unicode="&#xfe;" horiz-adv-x="1060" d="M88 -328v1723l352 39v-447q43 43 113 83t156 40q94 0 151.5 -39t88 -109.5t39.5 -170t9 -220.5q0 -164 -31.5 -275.5t-92 -180t-146.5 -98t-197 -29.5h-47t-43 2v-279zM440 270q31 -6 72 -6q27 0 53.5 8.5t46 38t31.5 85t12 147.5q0 88 -7 150.5t-17 103.5q-8 4 -39 4 q-37 0 -78 -11.5t-74 -27.5v-492z" />
<glyph unicode="&#xff;" horiz-adv-x="1042" d="M10 1085h377l102 -563q10 -49 16.5 -97t10.5 -93h6q4 45 10.5 90t16.5 100l96 563h385l-242 -1087q-14 -68 -40.5 -126t-70.5 -102t-110.5 -70t-160.5 -26q-133 0 -205 17.5t-86 23.5v299q35 -10 93 -21t136 -11q55 0 85 17t40 69l8 53h-233zM160 1198v223l311 19v-226z M563 1198v223l312 19v-226z" />
<glyph unicode="&#x152;" horiz-adv-x="1406" d="M66 653q0 154 19 285t74.5 227.5t154 150.5t255.5 54q94 0 160 -18h604l-12 -314h-334v-209h322v-294h-322v-218h342v-317h-663q-68 -18 -160 -18q-147 0 -234.5 44t-133.5 130t-59 211t-13 286zM420 655q0 -147 7 -230t19 -132q14 -2 31 -3t35 -1q37 0 67.5 4t53.5 16 v750q-29 6 -58 6q-53 0 -83.5 -22.5t-47 -71.5t-20.5 -127t-4 -189z" />
<glyph unicode="&#x153;" horiz-adv-x="1531" d="M59 543q0 164 38 272.5t103.5 174t153.5 93t191 27.5q100 0 164.5 -27.5t105.5 -81.5q55 59 127 84t158 25q117 0 190.5 -33t114.5 -91t56.5 -139t15.5 -179q0 -66 -5.5 -127.5t-15.5 -124.5l-475 -27q2 -35 6 -67.5t8 -53.5q16 -2 35 -3t49 -1q47 0 99.5 5t99.5 13.5 t85 16.5t56 12l21 -276q-35 -16 -135.5 -38t-247.5 -22q-188 0 -277 119q-100 -119 -299 -119q-145 0 -229 45.5t-127 122t-54.5 180t-11.5 220.5zM414 553q0 -109 4 -175.5t14 -113.5q12 -4 26.5 -8t30.5 -4q27 0 52.5 6t45 33.5t32 84.5t12.5 159q0 109 -5 175t-16 113 q-25 12 -55 13q-29 0 -53.5 -6.5t-45 -34t-31.5 -85t-11 -157.5zM981 586l176 12q2 25 2 41v33q0 49 -3 93t-13 73q-10 4 -20.5 6t-24.5 2q-31 0 -53.5 -6t-36 -33t-20.5 -78t-7 -143z" />
<glyph unicode="&#x178;" horiz-adv-x="1015" d="M6 1352h367l102 -430q14 -59 21.5 -107.5t11.5 -85.5h6q4 41 12.5 87t24.5 108l113 428h364l-348 -910v-442h-354v442zM191 1425v201l280 16v-202zM555 1425v201l281 16v-202z" />
<glyph unicode="&#x2c6;" horiz-adv-x="796" d="M55 1294l342 205l344 -205l-57 -137l-287 111l-284 -111z" />
<glyph unicode="&#x2dc;" horiz-adv-x="796" d="M47 1399q16 14 41 30.5t51.5 31t52 22.5t44.5 8q47 0 86.5 -18.5t78.5 -40t78 -39t84 -17.5l137 62l48 -174q-16 -16 -41 -33t-51.5 -31t-52 -22.5t-44.5 -8.5q-47 0 -88 17.5t-80 39t-78 40t-84 18.5q-39 -16 -75.5 -31.5t-59.5 -25.5z" />
<glyph unicode="&#x2000;" horiz-adv-x="864" />
<glyph unicode="&#x2001;" horiz-adv-x="1729" />
<glyph unicode="&#x2002;" horiz-adv-x="864" />
<glyph unicode="&#x2003;" horiz-adv-x="1729" />
<glyph unicode="&#x2004;" horiz-adv-x="576" />
<glyph unicode="&#x2005;" horiz-adv-x="432" />
<glyph unicode="&#x2006;" horiz-adv-x="288" />
<glyph unicode="&#x2007;" horiz-adv-x="288" />
<glyph unicode="&#x2008;" horiz-adv-x="216" />
<glyph unicode="&#x2009;" horiz-adv-x="345" />
<glyph unicode="&#x200a;" horiz-adv-x="96" />
<glyph unicode="&#x2010;" horiz-adv-x="757" d="M88 473v287h582v-287h-582z" />
<glyph unicode="&#x2011;" horiz-adv-x="757" d="M88 473v287h582v-287h-582z" />
<glyph unicode="&#x2012;" horiz-adv-x="757" d="M88 473v287h582v-287h-582z" />
<glyph unicode="&#x2013;" horiz-adv-x="997" d="M86 473v287h823v-287h-823z" />
<glyph unicode="&#x2014;" horiz-adv-x="1214" d="M86 473v287h1042v-287h-1042z" />
<glyph unicode="&#x2018;" horiz-adv-x="421" d="M70 864v244l80 250h190v-494h-270z" />
<glyph unicode="&#x2019;" horiz-adv-x="415" d="M82 858v494h270v-244l-80 -250h-190z" />
<glyph unicode="&#x201a;" horiz-adv-x="428" d="M80 -186v493h270v-244l-80 -249h-190z" />
<glyph unicode="&#x201c;" horiz-adv-x="792" d="M70 864v244l80 250h190v-494h-270zM440 864v244l80 250h191v-494h-271z" />
<glyph unicode="&#x201d;" horiz-adv-x="784" d="M82 858v494h270v-244l-80 -250h-190zM451 858v494h270v-244l-80 -250h-190z" />
<glyph unicode="&#x201e;" horiz-adv-x="796" d="M80 -186v493h270v-244l-80 -249h-190zM449 -186v493h270v-244l-80 -249h-190z" />
<glyph unicode="&#x2022;" horiz-adv-x="694" d="M136 628v487h434v-487h-434z" />
<glyph unicode="&#x2026;" horiz-adv-x="1558" d="M80 0v338h301v-338h-301zM627 0v338h301v-338h-301zM1176 0v338h301v-338h-301z" />
<glyph unicode="&#x202f;" horiz-adv-x="345" />
<glyph unicode="&#x2039;" horiz-adv-x="602" d="M43 561l203 473h309l-201 -473l199 -473h-307z" />
<glyph unicode="&#x203a;" horiz-adv-x="602" d="M47 88l201 473l-199 473h307l203 -473l-203 -473h-309z" />
<glyph unicode="&#x205f;" horiz-adv-x="432" />
<glyph unicode="&#x20ac;" horiz-adv-x="970" d="M53 444v179h123v12v90h-123v178h135q12 106 42 193.5t84.5 150t137.5 96t203 33.5q94 0 159 -15t97 -26l-20 -311q-23 6 -76 18.5t-113 12.5q-78 0 -114.5 -29t-48.5 -123h282v-178h-293v-90v-12h293v-179h-289q6 -90 19 -141q14 -2 29.5 -2h31.5q76 0 152 10.5t129 26.5 l2 -313q-20 -8 -56 -17.5t-78 -16.5t-85 -11.5t-80 -4.5q-127 0 -206 30t-125 89.5t-64.5 146.5t-22.5 203h-125z" />
<glyph unicode="&#x2122;" horiz-adv-x="1570" d="M88 1149v203h516v-203h-143v-608h-223v608h-150zM627 541l57 811h289l71 -355q8 -35 12.5 -67.5t4.5 -48.5h8q0 16 4 49t10 67l68 355h295l53 -811h-215l-16 336q-2 37 -2 69.5t2 48.5h-8q-2 -16 -8.5 -48t-16.5 -66l-84 -340h-182l-80 340q-10 37 -15.5 68.5t-7.5 47.5 h-8q2 -16 2 -49t-2 -69l-16 -338h-215z" />
<glyph unicode="&#x25fc;" horiz-adv-x="1105" d="M0 0v1106h1106v-1106h-1106z" />
<glyph unicode="&#xfb01;" horiz-adv-x="1193" d="M49 678v264l96 25v141q0 162 72 243t244 81q94 0 147.5 -8.5t89.5 -18.5l-22 -281q-16 4 -45 7.5t-60 3.5q-41 0 -73 -7q0 -2 -3 -39.5t-3 -89.5v-12l614 35v-1022h-354v717l-252 -15v-702h-355v682zM805 1124v283l305 20v-282z" />
<glyph unicode="&#xfb02;" horiz-adv-x="1257" d="M49 678v264l96 25v141q0 162 72 243t244 81q96 0 157.5 -8.5t98.5 -18.5l-21 -283q-16 4 -47 8.5t-71 4.5q-49 0 -80 -7q-2 -10 -4 -42.5t-2 -86.5v-18l202 8v-287l-194 -8v-694h-355v682zM815 0v1395l354 39v-1434h-354z" />
</font>
</defs>
</svg>
